<svg width="30" height="30" viewBox="0 0 30 30" fill="none" xmlns="http://www.w3.org/2000/svg">
<g clip-path="url(#clip0_1_344)">
<path d="M30 12.225V27.515C30 28.205 29.72 28.825 29.27 29.285C29.14 29.415 29 29.525 28.84 29.625C28.46 29.875 27.99 30.015 27.5 30.015H2.5C2.01 30.015 1.54 29.875 1.16 29.625C1 29.525 0.86 29.415 0.73 29.285C0.28 28.825 0 28.205 0 27.515V12.225H30Z" fill="#EFCCF1"/>
<path d="M13.158 22.059L0.765988 13.848C-0.304012 13.139 -0.241012 11.547 0.881988 10.925L12.095 4.717C13.826 3.758 15.927 3.748 17.667 4.689L29.102 10.872C30.241 11.488 30.31 13.097 29.227 13.807L16.646 22.066C15.587 22.763 14.215 22.76 13.158 22.059Z" fill="#F7E6F8"/>
<path d="M28.84 29.625C28.46 29.875 27.99 30.015 27.5 30.015H2.5C2.01 30.015 1.54 29.875 1.16 29.625C1.26 29.485 1.38 29.345 1.51 29.215L11.33 18.985C13.35 16.875 16.65 16.875 18.67 18.985L28.49 29.215C28.62 29.345 28.74 29.485 28.84 29.625Z" fill="#E7B3EA"/>
<path d="M12.851 16.349C11.429 14.53 10.016 12.72 8.59801 10.904C8.57301 10.922 8.52201 10.956 8.47501 10.993C7.27501 11.929 6.07401 12.864 4.87501 13.803C3.87401 14.589 3.72501 15.831 4.50701 16.839C5.02601 17.507 5.54701 18.172 6.06901 18.838C6.90101 19.901 8.11901 20.051 9.18701 19.219C10.357 18.308 11.526 17.393 12.695 16.48C12.754 16.434 12.811 16.384 12.851 16.349ZM9.80701 14.988C9.78001 15.149 9.69201 15.303 9.54801 15.422C9.50401 15.459 9.45801 15.495 9.41301 15.531C9.36901 15.568 9.32401 15.603 9.27901 15.639L9.21801 15.687C9.03101 15.836 8.84101 15.982 8.65001 16.128C8.58601 16.176 8.52101 16.226 8.45701 16.274C8.21401 16.458 7.94801 16.475 7.68001 16.322C7.50301 16.222 7.39001 16.051 7.34001 15.845C7.33301 15.808 7.33001 15.77 7.33001 15.733C7.33001 15.666 7.34001 15.599 7.35901 15.534C7.40001 15.4 7.48001 15.276 7.59901 15.184L7.99101 14.879L8.01801 14.858L8.28201 14.653L8.34001 14.609C8.45101 14.525 8.56201 14.441 8.67301 14.356C8.67601 14.354 8.67901 14.351 8.68101 14.349C8.85601 14.215 9.06001 14.167 9.24801 14.2C9.28501 14.207 9.32101 14.216 9.35701 14.229C9.36901 14.233 9.38101 14.237 9.39201 14.242C9.43001 14.258 9.46801 14.278 9.50301 14.301C9.52101 14.313 9.53901 14.327 9.55601 14.34C9.57701 14.357 9.59801 14.375 9.61501 14.394C9.63401 14.413 9.65201 14.433 9.66801 14.455L9.67001 14.457L9.73401 14.557C9.75301 14.591 9.76701 14.626 9.78001 14.661C9.79201 14.697 9.80101 14.734 9.80701 14.771C9.81901 14.841 9.81901 14.913 9.80701 14.983C9.80701 14.983 9.80801 14.985 9.80701 14.988Z" fill="#AE00B9"/>
<path d="M22.533 4.745C22.795 4.912 23.068 4.905 23.31 4.722C23.838 4.326 24.36 3.918 24.873 3.503C25.187 3.248 25.226 2.836 24.991 2.537C24.751 2.23 24.333 2.18 24.004 2.432C23.497 2.82 22.99 3.208 22.499 3.614C22.365 3.724 22.286 3.899 22.224 3.985C22.2 4.356 22.287 4.588 22.533 4.745Z" fill="#AE00B9"/>
<path d="M20.229 3.141C20.59 3.192 20.944 2.953 21.003 2.579C21.081 2.095 21.142 1.607 21.182 1.117C21.212 0.741001 20.921 0.426001 20.557 0.393001C20.189 0.360001 19.869 0.615001 19.812 0.993001C19.778 1.22 19.754 1.449 19.726 1.677C19.699 1.905 19.667 2.133 19.643 2.362C19.604 2.758 19.855 3.088 20.229 3.141Z" fill="#AE00B9"/>
<path d="M19.842 4.345C18.866 3.096 17.889 1.849 16.917 0.599002C16.663 0.273002 16.344 0.0720017 15.998 0.0210017C15.362 -0.0539983 14.798 0.243002 14.544 0.762002C14.263 1.336 14.38 1.857 14.766 2.35C17.382 5.692 19.995 9.039 22.608 12.384C22.674 12.469 22.742 12.554 22.816 12.63C23.497 13.319 24.656 13.116 25.054 12.234C25.3 11.687 25.188 11.189 24.827 10.726C23.163 8.599 21.503 6.471 19.842 4.345Z" fill="#AE00B9"/>
<path d="M25.403 6.569C24.948 6.504 24.49 6.449 24.033 6.4C23.639 6.358 23.31 6.615 23.259 6.989C23.207 7.375 23.464 7.71 23.866 7.771C24.086 7.804 24.307 7.826 24.528 7.853C24.764 7.882 25 7.917 25.236 7.938C25.623 7.973 25.958 7.707 26.004 7.336C26.05 6.966 25.789 6.624 25.403 6.569Z" fill="#AE00B9"/>
<path d="M16.117 15.906C15.683 16.159 15.29 16.389 14.863 16.638C15.129 16.966 15.373 17.254 15.601 17.553C15.833 17.858 15.828 18.234 15.554 18.471C15.194 18.779 14.8 19.049 14.411 19.345C14.013 18.854 13.608 18.356 13.222 17.879C12.487 18.453 11.766 19.014 11.04 19.58C11.863 20.6 12.703 21.631 13.53 22.672C13.788 22.995 14.055 23.291 14.45 23.445C14.602 23.463 14.756 23.482 14.908 23.501C14.922 23.494 14.935 23.483 14.95 23.482C16.054 23.407 16.692 22.072 15.843 21.117C15.655 20.907 15.496 20.672 15.296 20.41C15.673 20.127 16.059 19.861 16.418 19.561C17.12 18.972 17.364 17.998 16.965 17.181C16.746 16.732 16.41 16.34 16.117 15.906Z" fill="#AE00B9"/>
<path d="M9.71701 9.914C11.181 11.79 12.629 13.648 14.081 15.51C16.271 14.088 18.671 13.197 21.312 13.038C18.812 9.837 16.328 6.657 13.834 3.464C13.037 5.994 11.617 8.139 9.71701 9.914Z" fill="#AE00B9"/>
</g>
<defs>
<clipPath id="clip0_1_344">
<rect width="30" height="30" fill="white"/>
</clipPath>
</defs>
</svg>
