<svg width="30" height="30" viewBox="0 0 30 30" fill="none" xmlns="http://www.w3.org/2000/svg">
<g clip-path="url(#clip0_1_359)">
<path d="M27.149 4.502H2.851C1.283 4.502 0 5.785 0 7.353V16.117C0 17.685 1.283 18.968 2.851 18.968H14.44C14.44 19.74 14.44 20.508 14.44 21.285C14.308 21.285 14.194 21.285 14.08 21.285C10.992 21.285 7.904 21.284 4.816 21.286C4.29 21.286 4.109 21.47 4.109 21.992C4.108 22.855 4.109 23.718 4.109 24.597C2.508 24.999 1.77 26.42 1.967 27.71C2.159 28.968 3.277 29.956 4.607 29.999C5.904 30.041 7.067 29.089 7.327 27.778C7.561 26.601 6.958 25.056 5.22 24.591C5.22 23.858 5.22 23.124 5.22 22.392C8.306 22.392 11.371 22.392 14.448 22.392C14.448 23.137 14.448 23.864 14.448 24.587C12.802 25.2 12.068 26.315 12.33 27.796C12.549 29.035 13.697 29.988 14.986 30C16.272 30.012 17.447 29.047 17.669 27.796C17.931 26.318 17.201 25.207 15.56 24.59C15.56 23.857 15.56 23.123 15.56 22.392C18.645 22.392 21.711 22.392 24.787 22.392C24.787 23.137 24.787 23.865 24.787 24.588C23.082 25.053 22.46 26.509 22.658 27.699C22.878 29.027 23.979 29.97 25.313 29.999C26.586 30.026 27.722 29.119 28.003 27.839C28.139 27.218 28.059 26.617 27.769 26.05C27.373 25.276 26.73 24.81 25.89 24.597C25.89 23.699 25.902 22.818 25.88 21.938C25.875 21.755 25.785 21.527 25.654 21.409C25.537 21.304 25.308 21.29 25.129 21.29C22.05 21.283 18.971 21.285 15.892 21.285C15.78 21.285 15.668 21.285 15.557 21.285C15.557 20.5 15.557 19.736 15.557 18.968H27.152C28.72 18.968 30.003 17.685 30.003 16.117V7.353C30 5.785 28.717 4.502 27.149 4.502ZM6.289 27.287C6.282 28.184 5.55 28.904 4.648 28.902C3.745 28.9 3.027 28.179 3.027 27.274C3.027 26.373 3.751 25.642 4.647 25.639C5.55 25.636 6.296 26.385 6.289 27.287ZM25.343 25.639C26.24 25.64 26.966 26.368 26.968 27.269C26.97 28.174 26.254 28.898 25.352 28.902C24.44 28.906 23.701 28.171 23.706 27.265C23.712 26.374 24.452 25.638 25.343 25.639ZM16.631 27.288C16.619 28.189 15.891 28.905 14.99 28.902C14.092 28.899 13.363 28.168 13.364 27.273C13.365 26.38 14.1 25.642 14.991 25.639C15.894 25.636 16.643 26.39 16.631 27.288ZM29 16.117C29 17.137 28.17 17.968 27.149 17.968H19.005V15.52H18.005V17.968H11.994V15.52H10.994V17.968H2.851C1.83 17.967 1 17.137 1 16.117V7.353C1 6.333 1.83 5.502 2.851 5.502H27.15C28.17 5.502 29.001 6.332 29.001 7.353L29 16.117Z" fill="#B9B7C6"/>
<path fill-rule="evenodd" clip-rule="evenodd" d="M11.624 3.377C11.624 1.519 13.143 0 15.001 0C16.859 0 18.378 1.519 18.378 3.377C18.378 5.235 16.859 6.754 15.001 6.754C13.143 6.754 11.624 5.235 11.624 3.377ZM20.61 9.303C20.746 9.511 20.868 9.735 20.959 9.975C21.004 10.071 20.989 10.183 20.914 10.279C20.793 10.503 20.656 10.711 20.505 10.919C20.293 11.223 20.05 11.495 19.808 11.751C19.596 11.975 19.353 12.199 19.111 12.391C17.913 13.335 16.473 13.831 14.988 13.831C13.502 13.831 12.062 13.335 10.865 12.391C10.622 12.183 10.38 11.975 10.168 11.751C9.91 11.495 9.683 11.223 9.471 10.919C9.335 10.727 9.183 10.503 9.062 10.279C9.017 10.183 9.001 10.071 9.047 9.975C9.138 9.751 9.259 9.511 9.396 9.303C10.078 8.215 11.17 7.495 12.382 7.319C12.534 7.287 12.7 7.335 12.822 7.431C13.459 7.927 14.217 8.183 15.005 8.183C15.793 8.183 16.551 7.927 17.188 7.431C17.309 7.335 17.476 7.303 17.628 7.319C18.836 7.494 19.913 8.214 20.61 9.303Z" fill="#130F40"/>
</g>
<defs>
<clipPath id="clip0_1_359">
<rect width="30" height="30" fill="white"/>
</clipPath>
</defs>
</svg>
