<svg width="22" height="22" viewBox="0 0 22 22" fill="none" xmlns="http://www.w3.org/2000/svg">
<path d="M5.98477 3.7785C5.98477 4.99714 4.99713 5.98557 3.7777 5.98557C2.55827 5.98557 1.57141 4.99714 1.57141 3.7785C1.57141 2.55907 2.55905 1.57143 3.77848 1.57143C4.99791 1.57143 5.98477 2.55907 5.98477 3.7785ZM11 1.57143C9.78134 1.57143 8.79291 2.55907 8.79291 3.7785C8.79291 4.99714 9.78055 5.98557 11 5.98557C12.2194 5.98557 13.2071 4.99793 13.2071 3.7785C13.2071 2.55907 12.2186 1.57143 11 1.57143ZM18.2215 5.98478C19.4409 5.98478 20.4286 4.99714 20.4286 3.7785C20.4286 2.55907 19.4409 1.57143 18.2215 1.57143C17.0028 1.57143 16.0144 2.55907 16.0144 3.7785C16.0152 4.99714 17.0028 5.98478 18.2215 5.98478ZM3.77848 8.79293C2.55905 8.79293 1.57141 9.78136 1.57141 11C1.57141 12.2186 2.55905 13.2071 3.77848 13.2071C4.99791 13.2071 5.98477 12.2186 5.98477 11C5.98477 9.78136 4.99713 8.79293 3.77848 8.79293ZM11 8.79293C9.78134 8.79293 8.79291 9.78057 8.79291 11C8.79291 12.2186 9.78055 13.2071 11 13.2071C12.2194 13.2071 13.2071 12.2194 13.2071 11C13.2071 9.78136 12.2186 8.79293 11 8.79293ZM18.2215 8.79293C17.0028 8.79293 16.0144 9.78057 16.0144 11C16.0144 12.2186 17.0021 13.2071 18.2215 13.2071C19.4409 13.2071 20.4286 12.2186 20.4286 11C20.4286 9.78136 19.4409 8.79293 18.2215 8.79293ZM3.77848 16.0152C2.55905 16.0152 1.57141 17.0029 1.57141 18.2215C1.57141 19.4409 2.55905 20.4286 3.77848 20.4286C4.99791 20.4286 5.98555 19.4409 5.98555 18.2215C5.98477 17.0029 4.99713 16.0152 3.77848 16.0152ZM11 16.0152C9.78134 16.0152 8.79291 17.0029 8.79291 18.2223C8.79291 19.4409 9.78134 20.4286 11 20.4286C12.2186 20.4286 13.2071 19.4409 13.2071 18.2215C13.2071 17.0029 12.2186 16.0152 11 16.0152ZM18.2215 16.0152C17.0028 16.0152 16.0144 17.0029 16.0144 18.2223C16.0144 19.4409 17.0021 20.4294 18.2215 20.4294C19.4409 20.4286 20.4286 19.4409 20.4286 18.2215C20.4286 17.0029 19.4409 16.0152 18.2215 16.0152Z" fill="#5A577A"/>
</svg>
