<svg width="20" height="20" viewBox="0 0 20 20" fill="none" xmlns="http://www.w3.org/2000/svg">
<path d="M18.4643 9.72854L14.0892 5.35342C13.9532 5.21738 13.7124 5.21738 13.5764 5.35342L12.6279 6.30195C12.4862 6.44362 12.4862 6.67327 12.6279 6.81494L15.7981 9.98486L12.628 13.1553C12.4864 13.297 12.4864 13.5266 12.628 13.6683L13.5766 14.6168C13.6446 14.6849 13.7369 14.7233 13.8331 14.7233C13.929 14.7233 14.0215 14.6849 14.0896 14.6168L18.4643 10.2419C18.606 10.1 18.606 9.87022 18.4643 9.72854Z" fill="#5A577A"/>
<path d="M7.37109 13.155L4.20135 9.98494L7.37163 6.81502C7.43966 6.747 7.47793 6.65485 7.47793 6.55852C7.47793 6.46238 7.43984 6.37005 7.37163 6.30203L6.42311 5.3535C6.35508 5.28548 6.26275 5.2472 6.16661 5.2472C6.07047 5.2472 5.97814 5.28548 5.91011 5.3535L1.53481 9.72826C1.39314 9.86993 1.39314 10.0996 1.53481 10.2414L5.90993 14.6164C5.97796 14.6844 6.07029 14.7229 6.16643 14.7229C6.26257 14.7229 6.3549 14.6844 6.42292 14.6164L7.37145 13.6678C7.51312 13.5264 7.51312 13.2967 7.37109 13.155Z" fill="#5A577A"/>
<path d="M12.4878 3.88073C12.4418 3.7962 12.3641 3.73343 12.272 3.70622L11.503 3.4793C11.3111 3.42234 11.109 3.53244 11.0524 3.72454L7.48273 15.8134C7.45552 15.9057 7.46604 16.005 7.51193 16.0893C7.55783 16.174 7.63565 16.2366 7.7278 16.264L8.49674 16.4909C8.53102 16.5011 8.56567 16.506 8.59959 16.506C8.75614 16.506 8.90071 16.4037 8.94733 16.2457L12.517 4.15663C12.5443 4.0643 12.5339 3.96508 12.4878 3.88073Z" fill="#5A577A"/>
</svg>
