<svg width="22" height="22" viewBox="0 0 22 22" fill="none" xmlns="http://www.w3.org/2000/svg">
<path fill-rule="evenodd" clip-rule="evenodd" d="M8.35678 18.7879H13.6386C13.1568 19.7584 12.1557 20.4286 10.9985 20.4286C9.8414 20.4286 8.84034 19.7584 8.35678 18.7879Z" fill="#130F40"/>
<path fill-rule="evenodd" clip-rule="evenodd" d="M18.8543 16.6958C18.8543 17.4543 18.2384 18.0702 17.48 18.0702H4.51715C3.75872 18.0702 3.14282 17.4543 3.14282 16.6958C3.14282 16.2937 3.31758 15.9119 3.62299 15.6507C4.81747 14.6411 5.49954 13.1735 5.49954 11.6193V9.42885C5.49954 6.59536 7.65266 4.25561 10.4098 3.96038V2.16188C10.4098 1.83611 10.6728 1.57143 10.9986 1.57143C11.3243 1.57143 11.5873 1.83611 11.5873 2.16188V3.96038C14.3444 4.25561 16.4976 6.59536 16.4976 9.42885V11.6193C16.4976 13.1735 17.1796 14.6411 18.3656 15.6456C18.6795 15.9119 18.8543 16.2937 18.8543 16.6958Z" fill="#130F40"/>
<circle cx="15" cy="6" r="3.75" fill="#F50303" stroke="white" stroke-width="1.5"/>
</svg>
