<svg width="20" height="20" viewBox="0 0 20 20" fill="none" xmlns="http://www.w3.org/2000/svg">
<path d="M2.42319 8.70891C2.56208 8.78584 2.71639 8.86277 2.85527 8.92431C3.13304 9.0474 3.39537 9.15511 3.68857 9.26281C3.79659 9.30897 3.90461 9.35513 4.01263 9.3859V9.90903C4.01263 10.3091 4.01263 10.7091 4.01263 11.0938C4.01263 11.2322 4.05892 11.3092 4.18237 11.3553C4.29039 11.4015 4.39841 11.463 4.50643 11.5092C4.62988 11.5707 4.75333 11.6323 4.87679 11.6938C5.8644 12.14 6.72855 12.3554 7.59271 12.3862C7.65444 12.3862 7.70073 12.3862 7.76246 12.3862C8.64205 12.3862 9.52164 12.1708 10.5401 11.7246C10.7716 11.6323 10.9876 11.5246 11.2037 11.4169C11.4814 11.2784 11.7746 11.1399 12.0678 11.0168C13.2252 10.5399 14.3054 10.4629 15.3701 10.7706C16.1108 10.9861 16.8516 11.2938 17.5305 11.7092C17.5614 11.7246 17.6077 11.7554 17.6386 11.7707L17.7774 11.8477L17.7929 11.7246C17.7929 11.7092 17.7929 11.6938 17.7929 11.6938V11.1399C17.7929 9.21665 17.7929 7.30877 17.7929 5.3855C17.7929 5.30857 17.7311 5.21626 17.6694 5.18549C17.2528 4.98547 16.8207 4.78545 16.2652 4.53927C16.188 4.5085 16.1108 4.47772 16.0337 4.46234C16.0183 4.46234 16.0028 4.44695 15.972 4.44695V4.04691C15.972 3.60071 15.972 3.15452 15.972 2.70832C15.972 2.58523 15.9257 2.5083 15.8176 2.46214C15.7096 2.41598 15.617 2.36982 15.509 2.30828C15.3547 2.23135 15.2004 2.15442 15.0306 2.07749C14.0739 1.66206 13.2406 1.44666 12.4073 1.43127C11.466 1.4005 10.4938 1.63129 9.35189 2.13903C9.16671 2.23135 8.98154 2.30828 8.79636 2.4006C8.42601 2.56984 8.05565 2.75448 7.66987 2.89295C6.74398 3.24683 5.89526 3.32376 5.04653 3.15452C4.15151 2.98527 3.25649 2.60062 2.29974 2.01594L2.20715 1.9544V8.58582L2.23802 8.60121C2.29974 8.64736 2.36147 8.67814 2.42319 8.70891ZM15.401 8.832C15.509 8.89354 15.617 8.9397 15.7251 9.00124L15.9874 9.13972V5.53937L16.1108 5.58553C16.3423 5.67784 16.5429 5.77016 16.7435 5.86247C16.759 5.87786 16.7744 5.92402 16.7744 5.95479C16.7744 6.7241 16.7744 7.47802 16.7744 8.24732V10.1552L16.7127 10.1244C16.6046 10.0783 16.4812 10.0475 16.3732 10.0013C15.3856 9.64746 14.5677 9.50899 13.7653 9.55515C12.9474 9.64746 12.1141 9.86287 11.2345 10.2629C11.0339 10.3552 10.8487 10.4322 10.6636 10.5245C10.2932 10.6937 9.92285 10.8784 9.53707 11.0322C8.75007 11.3399 7.99393 11.4476 7.25322 11.3553C6.66683 11.2784 6.08043 11.1245 5.41688 10.8476C5.04653 10.6937 5.04653 10.6937 5.04653 10.2937V9.63208C5.10826 9.63208 5.15455 9.64746 5.21628 9.64746C5.38602 9.66285 5.55577 9.67823 5.72551 9.67823C6.66683 9.70901 7.60814 9.4936 8.68834 9.03202C8.91981 8.92431 9.15128 8.81661 9.36732 8.70891C9.64509 8.57043 9.93828 8.43196 10.2315 8.30887C11.0648 7.97037 11.8209 7.8319 12.5462 7.87806C13.2406 7.9396 13.9504 8.12424 14.6912 8.46273C14.9226 8.58582 15.1695 8.72429 15.401 8.832ZM3.24106 4.80083C3.24106 4.44695 3.24106 4.10846 3.24106 3.75458V3.67764C3.31821 3.70842 3.39537 3.7238 3.47253 3.75458C3.704 3.83151 3.92004 3.90844 4.15151 3.98537C5.49404 4.41618 6.852 4.33925 8.33342 3.75458C8.64205 3.63149 8.95067 3.47763 9.24387 3.33915C9.41362 3.26222 9.58336 3.1699 9.75311 3.09297C10.7716 2.63139 11.5894 2.43137 12.3919 2.46214C13.1634 2.49291 13.9504 2.69293 14.9226 3.15452C14.9381 3.1699 14.9535 3.21606 14.9535 3.26222C14.9535 3.96998 14.9535 4.67774 14.9535 5.3855V7.46263C14.9072 7.44725 14.8455 7.43186 14.7992 7.40109C14.614 7.33954 14.4443 7.278 14.2591 7.21645C13.3795 6.92412 12.6388 6.81641 11.9135 6.87796C11.1111 6.9395 10.2778 7.15491 9.39819 7.55495C9.21301 7.63188 9.02783 7.7242 8.84266 7.80113C8.45687 7.98576 8.07108 8.17039 7.66987 8.32426C6.86744 8.63198 6.12673 8.72429 5.40145 8.64736C4.7842 8.57043 4.22867 8.3858 3.59598 8.15501C3.28735 8.0473 3.19476 7.89344 3.19476 7.55495C3.24106 6.63178 3.24106 5.70861 3.24106 4.80083Z" fill="#5A577A"/>
<path d="M13.5184 5.29319C13.5955 5.00085 13.6727 4.70852 13.7344 4.41618C13.0863 4.26232 12.4382 4.17 11.7746 4.24693C11.8055 4.55465 11.8363 4.8316 11.8672 5.13933C12.4382 5.07778 12.9628 5.15471 13.5184 5.29319Z" fill="#5A577A"/>
<path d="M9.08956 6.92412C9.83026 6.92412 10.4475 6.32406 10.463 5.58553C10.463 4.8316 9.86113 4.21616 9.10499 4.21616C8.36428 4.21616 7.74703 4.81622 7.73159 5.55475C7.73159 6.30867 8.33342 6.92412 9.08956 6.92412Z" fill="#5A577A"/>
<path d="M6.38906 6.89334C6.3582 6.58562 6.32734 6.30867 6.29647 6.00095C5.72551 6.06249 5.18541 5.98556 4.64531 5.84709C4.56816 6.13943 4.491 6.43176 4.42927 6.7241C5.07739 6.87796 5.71008 6.97028 6.38906 6.89334Z" fill="#5A577A"/>
<path d="M13.1789 15.725H7.46926C7.16063 15.725 6.8983 15.4788 6.8983 15.1557C6.8983 14.848 7.1452 14.5864 7.46926 14.5864H13.1634C13.4721 14.5864 13.7344 14.8326 13.7344 15.1557C13.7344 15.4788 13.4875 15.725 13.1789 15.725Z" fill="#5A577A"/>
<path d="M16.2034 18.5714H4.44471C4.13608 18.5714 3.87374 18.3252 3.87374 18.0021C3.87374 17.6944 4.12065 17.4328 4.44471 17.4328H16.2034C16.5121 17.4328 16.7744 17.679 16.7744 18.0021C16.759 18.3252 16.5121 18.5714 16.2034 18.5714Z" fill="#5A577A"/>
</svg>
