<svg width="20" height="20" viewBox="0 0 20 20" fill="none" xmlns="http://www.w3.org/2000/svg">
<path d="M15.5471 4.75998C15.74 4.88212 15.94 4.87712 16.1178 4.74355C16.5057 4.45212 16.8886 4.15355 17.2664 3.84784C17.4971 3.66069 17.5257 3.35784 17.3535 3.13784C17.1771 2.91284 16.8707 2.87569 16.6286 3.06069C16.2557 3.34569 15.8843 3.63069 15.5228 3.92926C15.425 4.00998 15.3664 4.13855 15.3207 4.20212C15.3028 4.47426 15.3664 4.64498 15.5471 4.75998ZM13.855 3.58141C14.12 3.61926 14.38 3.44284 14.4236 3.16855C14.4807 2.81284 14.5257 2.45426 14.555 2.09498C14.5771 1.81926 14.3628 1.58712 14.0964 1.56284C13.8257 1.53855 13.5907 1.72569 13.5493 2.00355C13.5243 2.17069 13.5071 2.33855 13.4857 2.50641C13.4657 2.67426 13.4421 2.84141 13.4243 3.00998C13.3957 3.30069 13.58 3.54212 13.855 3.58141ZM17.655 6.09926C17.3207 6.05212 16.985 6.01069 16.6493 5.97498C16.36 5.94355 16.1178 6.13284 16.0807 6.40784C16.0421 6.69141 16.2314 6.93784 16.5264 6.98212C16.6878 7.00641 16.8507 7.02212 17.0128 7.04284C17.1857 7.06355 17.3593 7.08926 17.5328 7.10569C17.8171 7.13141 18.0635 6.93641 18.0964 6.66355C18.13 6.39141 17.9385 6.13998 17.655 6.09926ZM9.28712 18.5243C8.80641 18.3707 8.48998 18.0207 8.18784 17.6385C7.56641 16.8528 6.92855 16.08 6.29712 15.3021C6.25783 15.2536 6.21569 15.2064 6.15569 15.1357C6.03212 15.2436 5.91855 15.35 5.79712 15.4464C5.06712 16.0271 4.13426 15.9314 3.54284 15.2136C3.11926 14.6993 2.69998 14.1821 2.28426 13.6621C1.69498 12.9264 1.79141 11.995 2.52212 11.3971C3.56141 10.5464 4.61784 9.71498 5.64498 8.84927C7.24284 7.50355 8.34569 5.81926 8.98212 3.83069C9.00498 3.75926 8.98284 3.66141 8.95284 3.58784C8.50284 2.46855 9.42069 1.27784 10.6135 1.44355C11.02 1.49998 11.3571 1.69141 11.6164 2.01069C13.365 4.16426 15.115 6.31641 16.8571 8.47498C17.2686 8.98498 17.3364 9.56212 17.0478 10.1521C16.7621 10.7364 16.2685 11.0193 15.6207 11.025C15.3114 11.0278 15.0336 10.92 14.7707 10.7593C14.6907 10.71 14.58 10.675 14.4893 10.6843C13.05 10.8293 11.695 11.2507 10.4221 11.9371C10.3971 11.9507 10.3735 11.9671 10.3285 11.9957C10.3893 12.0714 10.445 12.1414 10.5014 12.2121C11.1035 12.9686 11.0107 13.8907 10.2664 14.505C10.1507 14.6 10.0235 14.6814 9.87641 14.7871C10.2471 15.2336 10.6093 15.6336 10.9321 16.0643C11.5864 16.9371 11.165 18.1814 10.1243 18.4907C9.99855 18.5278 9.86641 18.545 9.73712 18.5707C9.58641 18.5557 9.43641 18.54 9.28712 18.5243ZM6.78998 9.23069C7.46641 10.0643 8.13212 10.885 8.80284 11.7121C10.305 10.6693 11.9821 10.0043 13.8036 9.71641C12.455 8.05498 11.1178 6.40784 9.77141 4.74926C9.11712 6.47498 8.11212 7.98069 6.78998 9.23069ZM5.95712 9.95641C5.92783 9.97784 5.88998 10.0043 5.85426 10.0328C4.96855 10.7514 4.08284 11.4693 3.19855 12.1886C2.89069 12.4386 2.86141 12.7228 3.11069 13.0307C3.50784 13.5214 3.90569 14.0107 4.30355 14.5007C4.58498 14.8471 4.84855 14.875 5.19569 14.5936C6.06355 13.89 6.93069 13.1857 7.79783 12.4821C7.84426 12.4443 7.88855 12.4028 7.91784 12.3778C7.25641 11.5607 6.60855 10.7607 5.95712 9.95641ZM16.1578 9.57998C16.1878 9.34284 16.1093 9.20212 15.9993 9.06641C14.2836 6.95427 12.5693 4.84069 10.855 2.72784C10.8221 2.68712 10.7907 2.64498 10.7521 2.61069C10.5957 2.47426 10.4178 2.43141 10.22 2.50426C10.03 2.57498 9.91998 2.71426 9.88784 2.91355C9.85712 3.10141 9.93569 3.24855 10.0507 3.38998C11.7664 5.50212 13.4807 7.61569 15.195 9.72855C15.2278 9.76927 15.2593 9.81212 15.2978 9.84569C15.4543 9.98141 15.6328 10.0236 15.8307 9.95141C16.0286 9.87784 16.1328 9.72927 16.1578 9.57998ZM6.99355 14.51C7.75141 15.4436 8.51212 16.3828 9.27641 17.3193C9.39712 17.4671 9.55926 17.5364 9.75355 17.5057C10.1764 17.4393 10.3364 16.9785 10.0535 16.6278C9.32355 15.7228 8.58926 14.8214 7.85641 13.9193C7.83569 13.8935 7.81069 13.8721 7.79569 13.8564C7.52641 14.0764 7.26712 14.2871 6.99355 14.51ZM9.26141 13.9693C10.0885 13.4143 9.95784 13.0971 9.40355 12.5543C9.13855 12.7578 8.87069 12.9621 8.60712 13.1643C8.83498 13.4457 9.04569 13.7043 9.26141 13.9693ZM6.18284 12.0443C6.18998 12.0657 6.19712 12.0943 6.19712 12.1236C6.21141 12.1736 6.21141 12.2314 6.19712 12.2814C6.18283 12.4036 6.11783 12.5186 6.00998 12.605C5.97426 12.6264 5.94498 12.655 5.90926 12.6843C5.87355 12.7128 5.84426 12.7343 5.80855 12.7636L5.76569 12.7993C5.62926 12.9071 5.49284 13.015 5.34855 13.1228C5.30569 13.1586 5.25498 13.195 5.20498 13.2307C5.03212 13.36 4.83141 13.3743 4.63712 13.2664C4.50712 13.1871 4.42141 13.065 4.38498 12.9143C4.38498 12.8857 4.37784 12.8564 4.37784 12.8278C4.37784 12.785 4.38498 12.7343 4.39926 12.6843C4.42784 12.5836 4.49284 12.4971 4.57926 12.4257L4.86712 12.2028L4.88141 12.1886L5.07569 12.0378L5.11855 12.0093C5.20498 11.9443 5.28355 11.88 5.36283 11.8221C5.36998 11.8221 5.36998 11.815 5.36998 11.815C5.49926 11.7143 5.65069 11.6857 5.78712 11.7071C5.81569 11.7071 5.84498 11.7143 5.86641 11.7286C5.88069 11.7286 5.88784 11.7357 5.89498 11.7357C5.92355 11.75 5.95284 11.7643 5.97426 11.7786C5.98855 11.7857 6.00283 11.8 6.01712 11.8071C6.03141 11.8214 6.04569 11.8357 6.05998 11.85C6.07426 11.8571 6.08855 11.8714 6.09569 11.8928L6.14569 11.965C6.16069 11.9936 6.16784 12.015 6.18284 12.0443Z" fill="#5A577A"/>
</svg>
