<svg width="20" height="20" viewBox="0 0 20 20" fill="none" xmlns="http://www.w3.org/2000/svg">
<path fill-rule="evenodd" clip-rule="evenodd" d="M2.14 1.42857C4.19374 1.42857 6.24748 1.42857 8.30207 1.42857C8.77351 1.42857 9.0118 1.66429 9.01265 2.12973C9.01351 4.18946 9.01351 6.24921 9.01265 8.30895C9.01265 8.77352 8.77351 9.0101 8.30207 9.0101C7.57006 9.01095 6.83806 9.01095 6.1069 9.0101H2.158C1.66085 9.0101 1.42942 8.78124 1.42856 8.28923C1.42856 6.24235 1.42856 4.19461 1.42856 2.14773C1.42942 1.66429 1.6617 1.42943 2.14 1.42857ZM11.693 1.42943C13.7536 1.42857 15.8133 1.42857 17.8731 1.42943C18.3316 1.42943 18.5733 1.66943 18.5733 2.12201C18.5742 4.18775 18.5742 6.25435 18.5733 8.32009C18.5733 8.77181 18.3308 9.01095 17.8713 9.01181C17.2602 9.01267 16.649 9.01267 16.0379 9.01181H11.7101C11.2267 9.01181 10.991 8.77866 10.991 8.30037C10.9901 6.24663 10.9901 4.19375 10.991 2.14001C10.9918 1.66772 11.2275 1.42943 11.693 1.42943ZM8.30207 10.9893C7.2752 10.9893 6.24833 10.9893 5.22146 10.9893C4.19459 10.9893 3.16772 10.9893 2.14085 10.9893C1.66256 10.9893 1.43027 11.225 1.42942 11.7084C1.42942 12.2801 1.42942 12.851 1.42942 13.4227V15.6813C1.42942 16.4099 1.42942 17.1393 1.43027 17.8688C1.43027 18.3274 1.66942 18.5708 2.12114 18.5708C4.18774 18.5716 6.25433 18.5716 8.32007 18.5708C8.77265 18.5708 9.01265 18.3282 9.01265 17.8696C9.01351 15.8099 9.01351 13.7502 9.01265 11.6904C9.0118 11.225 8.77265 10.9893 8.30207 10.9893ZM14.645 10.9935C15.635 10.9464 16.5856 11.2927 17.3228 11.9664C18.0788 12.6573 18.5193 13.6087 18.5639 14.6459C18.6076 15.6496 18.2553 16.6096 17.5722 17.3485C16.8813 18.0959 15.9367 18.5271 14.9116 18.5639C12.7996 18.6394 11.0793 17.0236 10.9935 14.8867C10.9498 12.8013 12.5536 11.0913 14.645 10.9935Z" fill="#14B9FF"/>
</svg>
