<svg width="11" height="11" viewBox="0 0 11 11" fill="none" xmlns="http://www.w3.org/2000/svg">
<path opacity="0.9" d="M9.84088 4.51109C9.88932 4.45617 9.91356 4.42875 9.93348 4.4038C10.3079 3.93457 10.3079 3.26874 9.93344 2.79955C9.91352 2.7746 9.88932 2.74716 9.84084 2.69226C9.81503 2.66301 9.80211 2.64839 9.78934 2.63473C9.55508 2.38442 9.23054 2.23803 8.88789 2.22805C8.86919 2.22751 8.84966 2.22751 8.81065 2.22751H2.18936C2.15035 2.22751 2.13084 2.22751 2.11214 2.22805C1.76945 2.23803 1.44494 2.38442 1.21067 2.63473C1.19789 2.64839 1.18499 2.66301 1.15916 2.69226C1.1107 2.74716 1.08648 2.7746 1.06656 2.79955C0.692111 3.26874 0.692107 3.93457 1.06655 4.4038C1.08646 4.42875 1.11069 4.45617 1.15915 4.51109L3.57193 7.2444C4.47056 8.26241 4.91987 8.77139 5.50001 8.77139C6.08014 8.77139 6.52945 8.26241 7.42807 7.2444L9.84088 4.51109Z" fill="#130F40"/>
</svg>
