<svg width="28" height="28" viewBox="0 0 28 28" fill="none" xmlns="http://www.w3.org/2000/svg">
<path d="M14.0003 0.074646C6.32178 0.074646 0.0747681 6.32166 0.0747681 13.9998C0.0747681 21.6783 6.32178 27.9253 14.0003 27.9253C21.6788 27.9253 27.9254 21.6783 27.9254 13.9998C27.9254 6.32166 21.6788 0.074646 14.0003 0.074646Z" fill="#FFA113"/>
<path d="M14.0002 0C6.2808 0 0 6.28038 0 13.9998C0 21.7196 6.28039 28 14.0002 28C21.72 28 28 21.7196 28 13.9998C28 6.28038 21.72 0 14.0002 0ZM11.8746 2.80338C12.2342 2.80338 12.527 3.09619 12.527 3.45573C12.527 3.5817 12.4894 3.69849 12.4273 3.79818C12.3293 3.79734 12.2721 3.79943 12.2688 3.79943L11.4934 3.79985C11.4884 3.79943 11.4258 3.79734 11.322 3.79818C11.2598 3.69849 11.2223 3.58128 11.2223 3.45532C11.2223 3.09619 11.5151 2.80338 11.8746 2.80338ZM14.2421 15.4442C17.4989 15.1443 16.9204 11.9092 16.6205 8.43808C16.4695 6.68915 15.3717 5.43032 14.3197 4.61154C15.4901 4.9665 16.809 5.76651 17.2378 7.55798C17.5118 8.70336 17.6057 9.72861 17.6962 10.7201C17.881 12.7414 18.0728 14.8244 19.8088 17.9273C18.0457 17.0096 14.8978 16.5266 11.8746 16.5266C9.3528 16.5266 6.74671 16.8641 4.92771 17.5085C6.57778 15.7667 11.5443 15.6928 14.2421 15.4442ZM3.26136 20.0195C3.26136 19.6391 3.75146 19.2424 4.62781 18.8941C5.66891 18.4804 7.25725 18.1358 9.21724 17.9677C9.21348 18.0174 9.2089 18.0666 9.2089 18.1166C9.2089 19.4351 10.4027 20.5042 11.875 20.5042C13.3474 20.5042 14.5412 19.4351 14.5412 18.1166C14.5412 18.0662 14.5366 18.0165 14.5329 17.9669C17.0238 18.1805 18.9121 18.6802 19.8439 19.2428C20.2627 19.496 20.4887 19.7613 20.4887 20.0199C20.4887 21.0431 16.9512 22.183 11.875 22.183C6.79843 22.1826 3.26136 21.0426 3.26136 20.0195ZM14.0002 26.2782C10.0427 26.2782 6.51897 24.3945 4.27201 21.4785C6.08101 22.2915 9.03371 22.7178 11.8746 22.7178C16.4082 22.7178 21.2266 21.6329 21.2266 19.6216C21.2266 19.36 21.1436 19.1144 20.9918 18.8845V18.8774C20.8687 18.6847 20.764 18.4975 20.6527 18.3127C18.6222 14.9495 18.4303 12.8673 18.2297 10.6704C18.1371 9.66021 18.042 8.61535 17.7588 7.43244C17.1548 4.90935 14.9633 4.13395 13.5385 3.8987C13.5764 3.75689 13.5985 3.60881 13.5985 3.45532C13.5985 2.6991 13.1084 2.05634 12.4294 1.82484C12.9441 1.75852 13.468 1.72098 14.0006 1.72098C20.7707 1.72098 26.279 7.22889 26.279 13.9994C26.2786 20.7703 20.7703 26.2782 14.0002 26.2782Z" fill="black"/>
</svg>
