<svg width="20" height="20" viewBox="0 0 20 20" fill="none" xmlns="http://www.w3.org/2000/svg">
<path d="M16.5621 1.435C16.2671 1.43286 15.9736 1.43357 15.68 1.43429H15.2793C14.5914 1.43429 14.4693 1.46857 13.9236 1.83643C13.4986 1.45072 12.9707 1.415 12.5493 1.43143C12.2136 1.44357 11.8429 1.44357 11.3857 1.43215C11.3679 1.43143 11.3486 1.43143 11.3307 1.43143C10.7179 1.43143 10.25 1.67929 9.90358 2.18786C9.5 2.03072 9.08072 1.90072 8.67429 1.77572C8.51143 1.72572 8.34929 1.67572 8.18715 1.62357C7.715 1.47286 7.26358 1.49643 6.88072 1.69357C6.49715 1.89215 6.21358 2.24857 6.06143 2.72572L1.90572 15.7929C1.58929 16.7893 2.02572 17.6393 3.01929 17.9571L3.26001 18.0343C3.63286 18.1529 4.00572 18.2721 4.38 18.3893C5.31143 18.6793 6.17 18.235 6.465 17.3064C6.87429 16.02 7.28358 14.7336 7.69143 13.4464L9.66286 7.24572C9.66215 7.25857 9.66143 7.27143 9.66143 7.28429C9.66215 9.20643 9.66215 11.1286 9.66215 13.0514L9.66286 16.8957C9.66286 17.6921 10.1229 18.3121 10.8629 18.5114C11.0007 18.5486 11.1457 18.5664 11.3057 18.5664C11.3093 18.5664 11.3121 18.5664 11.3157 18.5664C11.6293 18.5657 11.9407 18.5664 12.2529 18.5657H12.5657C13.27 18.5657 13.3814 18.5357 13.9393 18.1643C14.3186 18.5071 14.7814 18.5714 15.1721 18.5714C15.22 18.5714 15.2671 18.57 15.3129 18.5686C15.5793 18.56 15.8536 18.5629 16.1164 18.5636C16.2643 18.5643 16.4107 18.5636 16.56 18.565C17.5064 18.56 18.1936 17.8721 18.1943 16.93C18.1964 12.31 18.1957 7.69072 18.1943 3.07143C18.1943 2.12786 17.5079 1.44 16.5621 1.435ZM15.0029 2.50643C15.5107 2.50286 16.0043 2.505 16.5514 2.50572C16.9093 2.50643 17.1236 2.72286 17.1243 3.08357C17.125 3.47929 17.125 3.875 17.125 4.27V5.195H14.465C14.465 4.99215 14.4643 4.78929 14.4643 4.58786C14.4629 4.06857 14.4614 3.53143 14.4686 3.00643C14.4721 2.72357 14.7014 2.50857 15.0029 2.50643ZM14.4636 14.8693C14.4614 14.8421 14.46 14.8229 14.4686 14.8057H17.1257V15.3114C17.1257 15.8486 17.1257 16.38 17.125 16.9121C17.125 17.2821 16.9114 17.495 16.5407 17.4957C16.0464 17.4957 15.5529 17.4957 15.0586 17.4957C14.6764 17.495 14.4664 17.2836 14.4657 16.9007C14.4643 16.2343 14.465 15.5686 14.4657 14.9021C14.465 14.8907 14.4643 14.88 14.4636 14.8693ZM14.4736 13.72V12.6714H17.115V13.72H14.4736ZM14.4736 11.5871V6.27429H17.115V11.5871H14.4736ZM10.7321 14.8814C10.73 14.8536 10.7279 14.8286 10.7379 14.8057H13.3943V15.49C13.3943 15.965 13.3943 16.4364 13.3943 16.9093C13.3936 17.28 13.1807 17.4936 12.8107 17.495C12.3157 17.495 11.8229 17.495 11.3293 17.495C10.9457 17.4943 10.735 17.2836 10.7343 16.9021C10.7329 16.2414 10.7336 15.5807 10.735 14.9207C10.7343 14.9071 10.7336 14.895 10.7321 14.8814ZM13.395 5.14143C13.3979 5.16786 13.3986 5.18286 13.3921 5.19429H10.7321V4.60643C10.7314 4.09358 10.7314 3.58715 10.7329 3.08143C10.7343 2.72215 10.9507 2.50643 11.3121 2.50572C11.8114 2.50429 12.3107 2.505 12.8107 2.50572C13.18 2.50643 13.3929 2.72 13.3936 3.09143C13.3943 3.76286 13.3943 4.435 13.3929 5.10643C13.3929 5.11786 13.3943 5.12929 13.395 5.14143ZM10.7443 11.5857V6.28143H13.3886V11.5857H10.7443ZM13.3857 12.6764V13.7243H10.7421V12.6764H13.3857ZM8.665 6.85C8.15429 8.45643 7.64858 10.0486 7.13858 11.655L7.05215 11.9257L6.45286 11.7357C5.80715 11.53 5.16572 11.3257 4.51643 11.1193C5.05715 9.41786 5.59286 7.73143 6.12929 6.04286C6.70358 6.225 7.26858 6.405 7.83286 6.585L8.665 6.85ZM6.72786 12.9464L6.40572 13.9579C5.82501 13.7729 5.24929 13.5907 4.67358 13.4064L3.87072 13.1514L4.19358 12.14L6.72786 12.9464ZM6.08286 14.9786C6.02 15.1721 5.96 15.3657 5.89858 15.5564C5.73286 16.0793 5.57643 16.5736 5.40715 17.0757C5.32143 17.335 5.05 17.4714 4.77572 17.3879C4.25215 17.2307 3.72643 17.0636 3.21215 16.8907C2.95143 16.8021 2.81286 16.525 2.89001 16.2479C2.92501 16.1236 2.96501 15.9979 3.00358 15.8764L3.03643 15.7736C3.20501 15.2429 3.37501 14.7129 3.54715 14.1729C4.39215 14.4421 5.22786 14.7071 6.08286 14.9786ZM7.79143 2.62143C8.31143 2.78143 8.82572 2.94715 9.26072 3.08786C9.58572 3.19357 9.73143 3.44858 9.64215 3.75286C9.495 4.25215 9.33286 4.75786 9.17572 5.24715C9.11358 5.44072 9.05143 5.63429 8.99001 5.82929L6.46072 5.02429C6.46072 5.02286 6.46072 5.02072 6.46143 5.01929C6.46215 5.00572 6.46286 4.99715 6.465 4.99143L6.635 4.45C6.78858 3.96429 6.94715 3.46143 7.10643 2.96857C7.20429 2.67 7.48429 2.52715 7.79143 2.62143Z" fill="#5A577A"/>
</svg>
