<svg width="20" height="20" viewBox="0 0 20 20" fill="none" xmlns="http://www.w3.org/2000/svg">
<path d="M16.639 4.12778C16.6359 2.59627 15.5054 1.44097 14.0061 1.43163H12.4497C12.1089 1.43163 11.768 1.43317 11.4287 1.43317H11.0817C10.4292 1.43317 9.7784 1.43163 9.12743 1.42857H9.07968C8.31315 1.43623 7.68071 1.70163 7.14699 2.24147C6.93408 2.45591 6.7198 2.66866 6.50689 2.87698C5.74649 3.62667 4.98762 4.3439 4.26885 5.0163C3.8184 5.43889 3.53309 5.94491 3.41738 6.52485C3.41585 6.52945 3.41585 6.53572 3.41432 6.54031C3.37575 6.73776 3.3557 6.94439 3.35723 7.15883C3.36029 7.89306 3.35876 8.62728 3.35876 9.36151L3.35723 11.9188C3.35723 13.2391 3.35723 14.5611 3.35876 15.8814C3.35876 16.0248 3.36963 16.1652 3.38968 16.3025C3.38968 16.304 3.38968 16.304 3.38968 16.3055C3.57626 17.6012 4.60513 18.5405 5.93476 18.5699C5.95634 18.5714 5.97792 18.5714 5.9995 18.5714H13.9984C14.2715 18.5714 14.5182 18.539 14.7496 18.4727C15.8956 18.1395 16.6376 17.1169 16.6392 15.8644C16.6407 14.4916 16.6407 13.1188 16.6407 11.746V8.29867C16.6407 6.90888 16.6407 5.51757 16.639 4.12778ZM7.96739 3.05591C7.97657 3.04672 7.98744 3.03739 7.99663 3.0282V5.34966C7.99663 5.58262 7.80852 5.77226 7.57556 5.77226H5.154C6.05644 4.92691 7.01582 4.01682 7.96739 3.05591ZM15.4839 11.7476C15.4839 13.1188 15.4839 14.4916 15.4823 15.8644C15.4823 16.5986 15.0782 17.1725 14.4273 17.3606C14.3024 17.3976 14.1605 17.4146 13.9986 17.4146H6.00088C5.14175 17.4146 4.51712 16.7684 4.51543 15.8799C4.5139 14.5596 4.5139 13.2393 4.5139 11.9188L4.51543 9.36151C4.51696 8.62575 4.51696 7.89 4.5139 7.15424C4.5139 7.04158 4.52309 6.93674 4.53854 6.83495H7.99663C8.58422 6.83495 9.06085 6.35833 9.06085 5.77226H9.05932V2.58693C9.0809 2.58693 9.10095 2.5854 9.121 2.5854C10.2316 2.58999 11.3405 2.58999 12.4496 2.58846C12.9633 2.58846 13.4753 2.58693 13.9889 2.58846C14.8666 2.58846 15.4805 3.22244 15.482 4.12931C15.4836 5.5191 15.4835 6.90873 15.4835 8.29851L15.4839 11.7476Z" fill="#5A577A"/>
<path d="M13.517 4.34897H11.1388C10.8465 4.34897 10.6094 4.5859 10.6094 4.8784C10.6094 5.1709 10.8465 5.40784 11.1388 5.40784H13.517C13.8094 5.40784 14.0465 5.17075 14.0465 4.8784C14.0465 4.58606 13.8094 4.34897 13.517 4.34897Z" fill="#5A577A"/>
<path d="M13.517 6.49117H11.1388C10.8465 6.49117 10.6094 6.72826 10.6094 7.0206C10.6094 7.31295 10.8465 7.55004 11.1388 7.55004H13.517C13.8094 7.55004 14.0465 7.31295 14.0465 7.0206C14.0465 6.72826 13.8094 6.49117 13.517 6.49117Z" fill="#5A577A"/>
<path d="M13.4523 10.8535C13.2504 10.8104 13.083 10.8713 12.94 11.0398C12.557 11.492 12.1718 11.9421 11.7867 12.3921L11.2889 12.974C11.2349 13.0372 11.1579 13.0709 11.0734 13.0642C10.9914 13.0585 10.9161 13.0137 10.8719 12.9445L10.5636 12.4614C10.2725 12.005 9.98488 11.5542 9.69575 11.1043C9.60024 10.9561 9.45453 10.8629 9.2958 10.8485C9.1429 10.8346 8.99718 10.8933 8.88468 11.0139C8.28025 11.6611 7.67842 12.311 7.07659 12.9609L6.35399 13.7409C6.27517 13.8264 6.23353 13.9224 6.2268 14.0335C6.21532 14.2291 6.32996 14.4174 6.5121 14.5022C6.69669 14.587 6.87287 14.5467 7.02133 14.3859C7.33954 14.0425 7.65531 13.6969 7.97122 13.3512C8.25362 13.042 8.53601 12.7328 8.82009 12.4255C8.89264 12.3466 8.99657 12.3072 9.1028 12.3165C9.21055 12.326 9.30575 12.3835 9.36376 12.4743C9.5557 12.774 9.74503 13.0706 9.93314 13.3654C10.1145 13.6495 10.2947 13.9317 10.4751 14.2135C10.5777 14.3739 10.7237 14.4688 10.8864 14.4808C11.047 14.4944 11.1996 14.4224 11.32 14.2836C11.5608 14.0072 11.7996 13.7289 12.0383 13.4508L12.7144 12.6647C13.0227 12.3068 13.3311 11.949 13.6364 11.5885C13.7598 11.4431 13.8019 11.2636 13.7489 11.1085C13.7041 10.9755 13.5985 10.8849 13.4523 10.8535Z" fill="#5A577A"/>
</svg>
