<svg width="30" height="30" viewBox="0 0 30 30" fill="none" xmlns="http://www.w3.org/2000/svg">
<g clip-path="url(#clip0_1_336)">
<path d="M25.792 4.502H4.208C1.893 4.502 0 6.395 0 8.709V25.792C0 28.107 1.893 30 4.208 30H25.793C28.107 30 30 28.107 30 25.792V8.709C30 6.395 28.107 4.502 25.792 4.502ZM29 25.792C29 27.561 27.561 29 25.792 29H4.208C2.439 29 1 27.561 1 25.792V8.709C1 6.94 2.439 5.501 4.208 5.501H25.793C27.561 5.502 29 6.941 29 8.709V25.792Z" fill="#B9B7C6"/>
<path fill-rule="evenodd" clip-rule="evenodd" d="M9.92271 5.12699C9.92271 2.30636 12.2074 0 15.0022 0C17.7971 0 20.0809 2.30636 20.0809 5.12699C20.0809 7.94844 17.7963 10.254 15.0022 10.254C12.2082 10.254 9.92271 7.94844 9.92271 5.12699ZM23.4374 14.1237C23.6428 14.4397 23.8254 14.7795 23.9615 15.144C24.03 15.2896 24.0071 15.46 23.893 15.6056C23.7104 15.9454 23.505 16.2614 23.2776 16.5773C22.9581 17.0389 22.5938 17.452 22.2286 17.8412C21.9091 18.181 21.5448 18.5217 21.1797 18.8129C19.3783 20.2463 17.2127 21 14.9786 21C12.7445 21 10.578 20.2471 8.77753 18.8129C8.41238 18.497 8.04804 18.181 7.72854 17.8412C7.34056 17.4528 6.99905 17.0398 6.67954 16.5773C6.47414 16.2861 6.24674 15.9454 6.06416 15.6056C5.9957 15.46 5.97287 15.2896 6.04134 15.144C6.17827 14.8042 6.36085 14.4397 6.56543 14.1237C7.5916 12.4715 9.23316 11.3779 11.0565 11.1105C11.2847 11.062 11.5349 11.1352 11.7175 11.2809C12.6752 12.0337 13.8147 12.4229 15.0006 12.4229C16.1865 12.4229 17.326 12.0346 18.2837 11.2809C18.4663 11.1352 18.7165 11.0867 18.9447 11.1105C20.7705 11.3779 22.3892 12.4715 23.4374 14.1237Z" fill="#130F40"/>
</g>
<defs>
<clipPath id="clip0_1_336">
<rect width="30" height="30" fill="white"/>
</clipPath>
</defs>
</svg>
