<svg width="30" height="30" viewBox="0 0 30 30" fill="none" xmlns="http://www.w3.org/2000/svg">
<path d="M25.4157 7.72049H4.58714C3.94839 7.72049 3.42999 7.2007 3.42999 6.56025C3.42999 5.91981 3.94839 5.40002 4.58714 5.40002H25.4157C26.0544 5.40002 26.5728 5.91981 26.5728 6.56025C26.5728 7.2007 26.0544 7.72049 25.4157 7.72049Z" fill="#130F40"/>
<path d="M25.4157 24.5955H4.58714C3.94839 24.5955 3.42999 24.0757 3.42999 23.4353C3.42999 22.7948 3.94839 22.275 4.58714 22.275H25.4157C26.0544 22.275 26.5728 22.7948 26.5728 23.4353C26.5728 24.0757 26.0544 24.5955 25.4157 24.5955Z" fill="#130F40"/>
<path d="M25.4157 16.158H4.58714C3.94839 16.158 3.42999 15.6382 3.42999 14.9978C3.42999 14.3573 3.94839 13.8375 4.58714 13.8375H25.4157C26.0544 13.8375 26.5728 14.3573 26.5728 14.9978C26.5728 15.6382 26.0544 16.158 25.4157 16.158Z" fill="#130F40"/>
</svg>
