<svg width="20" height="20" viewBox="0 0 20 20" fill="none" xmlns="http://www.w3.org/2000/svg">
<path d="M13.799 8.42654C13.6433 8.44828 13.5052 8.52955 13.4106 8.65552C13.3162 8.78134 13.2761 8.93669 13.2975 9.09282C13.3194 9.24787 13.4018 9.38608 13.5296 9.48205C13.6335 9.56011 13.7561 9.60128 13.8816 9.60128C13.9087 9.60128 13.9363 9.59929 13.9635 9.59547C15.6469 9.35945 16.9188 7.8968 16.9223 6.19307C16.9223 4.49976 15.7108 3.07231 14.0417 2.79864C14.011 2.79374 13.9794 2.79129 13.948 2.79129C13.6618 2.79129 13.4111 3.00374 13.3649 3.28568C13.3122 3.60588 13.5308 3.91001 13.8516 3.96359C14.9474 4.14267 15.7427 5.08017 15.7427 6.19246C15.7408 7.31073 14.9053 8.27134 13.799 8.42654Z" fill="#5A577A"/>
<path d="M7.92864 10.5838H7.95833C9.12496 10.5797 10.2189 10.1216 11.0387 9.29413C11.8612 8.46653 12.3114 7.37 12.3063 6.20658C12.3063 3.7925 10.3426 1.82858 7.92879 1.82858C5.51441 1.82858 3.55017 3.79235 3.55017 6.20627C3.55017 7.37367 4.00614 8.47265 4.83405 9.3004C5.66211 10.128 6.76109 10.5838 7.92864 10.5838ZM7.92879 3.00806C9.69221 3.00806 11.1269 4.44393 11.1269 6.20888C11.1304 7.05974 10.8021 7.86025 10.2021 8.46301C9.60359 9.06653 8.80568 9.40081 7.95558 9.40433H7.92864C6.16476 9.40433 4.72966 7.96969 4.72966 6.20627C4.72966 4.44286 6.16476 3.00822 7.92879 3.00806Z" fill="#5A577A"/>
<path d="M15.7941 11.7532C15.4693 11.7099 15.1699 11.9387 15.1228 12.2504C15.075 12.5713 15.2982 12.8723 15.6202 12.9214C16.7959 13.0965 17.3921 13.4505 17.3921 13.9737C17.3921 14.1307 17.3921 14.4987 16.6202 14.7907C16.4731 14.8463 16.3566 14.9559 16.2922 15.0992C16.2273 15.2432 16.2222 15.4037 16.2781 15.5511C16.3643 15.7789 16.5858 15.9318 16.8294 15.9318C16.9008 15.9318 16.9712 15.9188 17.0387 15.8934C18.3055 15.4134 18.5714 14.5846 18.5714 13.9735C18.5714 13.1504 18.0893 12.0969 15.7941 11.7532Z" fill="#5A577A"/>
<path d="M7.9286 12.1575L7.60274 12.1581C3.5059 12.1809 1.42856 13.1963 1.42856 15.1762C1.42856 18.1417 6.05529 18.1658 7.5758 18.1737H8.25462C12.3513 18.1511 14.4285 17.1367 14.4285 15.159C14.4286 12.4685 10.7189 12.1575 7.9286 12.1575ZM13.2492 15.159C13.2492 16.3771 11.4591 16.9947 7.92876 16.9947C4.39825 16.9947 2.6082 16.3829 2.6082 15.1762C2.6082 13.656 5.50151 13.337 7.92876 13.337C11.459 13.337 13.2492 13.95 13.2492 15.159Z" fill="#5A577A"/>
</svg>
