<svg width="30" height="30" viewBox="0 0 30 30" fill="none" xmlns="http://www.w3.org/2000/svg">
<g clip-path="url(#clip0_1_328)">
<path d="M29.997 6.41786C29.997 6.31714 29.9909 6.21589 29.9815 6.11572C29.8738 4.95268 29.0954 4.19116 27.9455 4.1309V4.11938H5.60892V4.12661C4.41107 4.12634 3.21321 4.12607 2.01535 4.12741C1.83669 4.12768 1.65321 4.16598 1.48044 4.21634C0.543478 4.49009 0.000531629 5.27652 0.000263772 6.35866C-0.00107551 11.7734 -0.000271943 17.1881 -4.08551e-06 22.6029C-4.08551e-06 22.6937 0.0013352 22.7847 0.00588877 22.8755C0.0546388 23.8639 0.797942 24.6788 1.78285 24.7945C2.51678 24.8807 3.25607 24.8135 3.99267 24.8293C4.20107 24.8338 4.40946 24.8301 4.6425 24.8301C4.6425 24.9809 4.6425 25.0899 4.6425 25.1992C4.6425 26.3507 4.64732 27.5025 4.64035 28.654C4.63714 29.1833 4.82009 29.6068 5.29821 29.8591C5.78089 30.1138 6.22392 30.0029 6.65464 29.693C8.82562 28.1301 11.0041 26.5776 13.1751 25.0149C13.3578 24.8834 13.5372 24.8309 13.7596 24.8312C18.4262 24.836 23.0925 24.8338 27.7591 24.836C28.2562 24.8363 28.7204 24.7377 29.1295 24.4401C29.775 23.97 30.0003 23.314 29.9997 22.5413C29.9957 17.1664 29.9979 11.7921 29.997 6.41786Z" fill="#EFCCF1"/>
<path d="M15.7481 19.0095C15.1846 18.8904 11.7504 18.8904 11.1868 19.0095C10.7049 19.1207 10.1839 19.3808 10.1839 19.9487C10.2121 20.4892 10.5289 20.9684 10.9682 21.2713C11.5353 21.7154 12.202 21.9959 12.9 22.0969C13.2721 22.1478 13.6508 22.1467 14.0363 22.0969C14.7332 21.9959 15.3999 21.7154 15.968 21.2724C16.4062 20.9681 16.7234 20.4889 16.7513 19.9484C16.751 19.3808 16.23 19.1207 15.7481 19.0095Z" fill="#C74DCE"/>
<path d="M22.4116 13.1245C22.3205 12.2475 22.0594 11.4573 21.439 10.8852C20.6183 10.1063 20.2085 9.39911 20.0778 8.14045L20.0333 7.71349C19.8629 6.07233 19.3768 5.05581 18.4462 4.08429C17.0108 2.57465 14.7787 1.8067 12.6943 2.02313L12.6045 2.03251C10.5637 2.24438 8.59927 3.40233 7.47588 5.10938C6.72239 6.27831 6.4165 7.42393 6.59168 9.10956L6.63614 9.53652C6.76686 10.7952 6.53329 11.5693 5.86713 12.5025C5.37882 13.1898 5.28454 14.0167 5.37561 14.8939C5.46668 15.7701 5.84168 16.5718 6.48855 17.1871C7.32668 17.9183 8.44498 18.3244 9.54186 18.3013C11.1351 18.3174 12.7168 18.2215 14.3143 18.0557C15.9107 17.8899 17.4747 17.6132 19.0353 17.3154C20.1126 17.1126 21.1235 16.4853 21.7944 15.5976C22.301 14.8621 22.5024 14.0006 22.4116 13.1245Z" fill="#C74DCE"/>
<path d="M12.5217 4.45681C13.4647 4.17396 13.934 2.96019 13.5697 1.74578C13.2055 0.531362 12.1457 -0.223825 11.2027 0.0590214C10.2596 0.341867 9.79039 1.55564 10.1546 2.77005C10.5189 3.98447 11.5786 4.73965 12.5217 4.45681Z" fill="#C74DCE"/>
</g>
<defs>
<clipPath id="clip0_1_328">
<rect width="30" height="30" fill="white"/>
</clipPath>
</defs>
</svg>
