<svg width="20" height="20" viewBox="0 0 20 20" fill="none" xmlns="http://www.w3.org/2000/svg">
<path d="M8.30141 1.42892C6.24731 1.42846 4.19321 1.42846 2.13972 1.42892C1.66164 1.42907 1.4291 1.66436 1.42895 2.14842C1.42864 4.19563 1.42864 6.24299 1.4291 8.2902C1.42925 8.78161 1.66087 9.01062 2.15809 9.01077L6.10555 9.01093C6.83714 9.01108 7.56889 9.01108 8.30095 9.01062C8.7726 9.01031 9.01172 8.77441 9.01187 8.30934C9.01279 6.24957 9.01279 4.18996 9.01187 2.1302C9.01157 1.66498 8.7726 1.42907 8.30141 1.42892ZM7.79592 7.79467H2.63863V2.64487H7.79576L7.79592 7.79467Z" fill="#5A577A"/>
<path d="M17.8727 1.42913C15.813 1.42867 13.7531 1.42867 11.6925 1.42913C11.2269 1.42928 10.9909 1.66794 10.9907 2.13883C10.9901 4.19232 10.9901 6.2458 10.9907 8.29929C10.9909 8.77783 11.2262 9.01052 11.7101 9.01083L15.6718 9.01114C16.4049 9.01114 17.1382 9.01129 17.8713 9.01068C18.3302 9.01022 18.5729 8.7711 18.5732 8.31919C18.5742 6.2533 18.5742 4.18727 18.5732 2.12138C18.573 1.66871 18.3308 1.42928 17.8727 1.42913ZM17.364 7.79472H12.2068V2.64493H17.364V7.79472Z" fill="#5A577A"/>
<path d="M8.30148 10.9892C7.27458 10.9889 6.24769 10.9888 5.22079 10.9888C4.19389 10.9888 3.167 10.9889 2.1401 10.9892C1.66186 10.9892 1.42933 11.2245 1.42902 11.7086C1.42856 12.4227 1.42871 13.137 1.42871 13.8513V15.6814C1.42856 16.4104 1.42841 17.1397 1.42917 17.8687C1.42948 18.3277 1.6686 18.5703 2.12051 18.5705C4.1867 18.5717 6.2532 18.5717 8.31908 18.5706C8.77206 18.5703 9.01149 18.328 9.01164 17.8698C9.01256 15.81 9.01256 13.7503 9.01164 11.6905C9.01149 11.2251 8.77252 10.9892 8.30148 10.9892ZM7.79767 17.3568H2.64038V12.2032H7.79752L7.79767 17.3568Z" fill="#5A577A"/>
<path d="M17.3224 11.9665C16.5848 11.2927 15.634 10.9459 14.6445 10.9934C12.553 11.0911 10.9496 12.801 10.9932 14.8865C11.0789 17.0239 12.7995 18.6397 14.9114 18.5641C15.9368 18.5275 16.8818 18.0961 17.5722 17.349C18.255 16.6101 18.6072 15.6504 18.5637 14.6463C18.5189 13.6092 18.078 12.6573 17.3224 11.9665ZM14.7876 17.3648C14.7861 17.3648 14.7844 17.3648 14.7828 17.3648C14.0871 17.3634 13.4355 17.0922 12.9481 16.6011C12.4592 16.1083 12.1922 15.4518 12.196 14.7524C12.2043 13.3405 13.3686 12.1945 14.7928 12.1945C14.7952 12.1945 14.7974 12.1945 14.7998 12.1945C15.4832 12.1965 16.1282 12.4679 16.6151 12.9587C17.1039 13.4513 17.3712 14.1012 17.3677 14.7884C17.3608 16.2101 16.2038 17.3648 14.7876 17.3648Z" fill="#5A577A"/>
</svg>
